<svg xmlns="http://www.w3.org/2000/svg" xmlns:xlink="http://www.w3.org/1999/xlink" width="500" zoomAndPan="magnify" viewBox="0 0 375 374.999991" height="500" preserveAspectRatio="xMidYMid meet" version="1.0"><path fill="#ffffff" d="M 229.25 136.695312 L 187.5 178.40625 L 145.746094 136.695312 L 136.605469 145.84375 L 178.351562 187.546875 L 136.605469 229.246094 L 145.746094 238.398438 L 187.5 196.683594 L 229.253906 238.398438 L 238.394531 229.246094 L 196.648438 187.546875 L 238.394531 145.84375 Z M 187.546875 0.0078125 C 84.136719 0.0078125 0.0078125 84.136719 0.0078125 187.546875 C 0.0078125 290.90625 84.136719 374.992188 187.546875 374.992188 C 290.90625 374.992188 374.992188 290.902344 374.992188 187.546875 C 374.992188 84.136719 290.90625 0.0078125 187.546875 0.0078125 Z M 187.546875 362.0625 C 91.265625 362.0625 12.9375 283.773438 12.9375 187.546875 C 12.9375 91.265625 91.265625 12.9375 187.546875 12.9375 C 283.773438 12.9375 362.0625 91.265625 362.0625 187.546875 C 362.0625 283.773438 283.773438 362.0625 187.546875 362.0625 Z M 187.546875 362.0625 " fill-opacity="1" fill-rule="nonzero"/></svg>